<svg xmlns="http://www.w3.org/2000/svg" viewBox="0 0 720 360" role="img" aria-labelledby="title">
  <title id="title">社区实践插画</title>
  <rect width="720" height="360" fill="#e9f6f0"/>
  <rect x="0" y="238" width="720" height="122" fill="#d8eadf"/>
  <circle cx="92" cy="86" r="42" fill="#f1bd3b"/>
  <rect x="92" y="150" width="122" height="116" rx="8" fill="#ffffff" stroke="#91b8aa" stroke-width="6"/>
  <path d="M75 154h158l-79-66z" fill="#25745c"/>
  <rect x="126" y="198" width="36" height="68" fill="#d36b36"/>
  <rect x="442" y="136" width="136" height="132" rx="8" fill="#ffffff" stroke="#91b8aa" stroke-width="6"/>
  <path d="M422 140h176l-88-72z" fill="#2f6fb2"/>
  <rect x="488" y="196" width="42" height="72" fill="#25745c"/>
  <path d="M296 268c14-50 44-78 90-90 12 48-11 88-72 120z" fill="#73b88f"/>
  <path d="M302 270c-4-56 12-96 52-126 29 40 22 89-20 146z" fill="#5aa175"/>
  <circle cx="302" cy="214" r="22" fill="#d36b36"/>
  <circle cx="346" cy="208" r="22" fill="#2f6fb2"/>
  <path d="M270 286c22-38 51-58 88-58 36 0 65 20 88 58z" fill="#ffffff" stroke="#91b8aa" stroke-width="6"/>
</svg>
